<?xml version="1.0" standalone="no"?>
<!DOCTYPE svg PUBLIC "-//W3C//DTD SVG 20010904//EN"
 "http://www.w3.org/TR/2001/REC-SVG-20010904/DTD/svg10.dtd">
<svg version="1.0" xmlns="http://www.w3.org/2000/svg"
 width="900.000000pt" height="900.000000pt" viewBox="0 0 900.000000 900.000000"
 preserveAspectRatio="xMidYMid meet">
<metadata>
Created by potrace 1.11, written by Peter Selinger 2001-2013
</metadata>
<g transform="translate(0.000000,900.000000) scale(0.100000,-0.100000)"
fill="#000000" stroke="none">
<path d="M4767 6270 c-176 -20 -376 -98 -507 -198 -299 -227 -452 -625 -410
-1070 32 -352 168 -549 473 -692 47 -22 188 -74 313 -116 253 -84 362 -135
430 -201 61 -58 84 -112 84 -194 0 -96 -23 -154 -89 -220 -84 -84 -142 -104
-301 -104 -115 1 -133 3 -220 33 -137 47 -232 105 -388 236 -47 39 -87 65 -91
60 -5 -5 -83 -164 -175 -354 l-166 -345 32 -28 c45 -39 188 -127 289 -177 283
-143 607 -209 889 -181 204 21 350 63 513 149 232 122 389 305 470 549 59 177
72 268 71 508 0 246 -12 308 -90 463 -83 165 -239 306 -446 401 -46 22 -174
69 -284 106 -258 87 -349 131 -413 201 -134 147 -67 341 145 415 154 54 410
-12 584 -153 34 -27 66 -46 70 -41 6 7 222 466 296 630 l23 52 -84 47 c-302
164 -725 257 -1018 224z"/>
<path d="M6640 4495 l0 -1697 703 5 c760 4 788 6 982 62 478 138 707 513 645
1055 -42 370 -216 593 -524 673 l-83 21 56 41 c118 87 199 210 243 371 18 68
21 107 22 274 1 127 -4 216 -12 255 -77 349 -255 528 -607 608 -85 19 -129 21
-757 24 l-668 4 0 -1696z m980 1005 c171 -18 257 -66 303 -169 28 -63 34 -181
14 -252 -42 -143 -147 -203 -379 -216 l-118 -6 0 326 0 327 39 0 c21 0 85 -5
141 -10z m285 -1323 c161 -47 233 -124 254 -272 26 -179 -49 -316 -205 -374
-76 -29 -153 -39 -346 -47 l-168 -7 0 363 0 362 208 -5 c137 -3 224 -10 257
-20z"/>
<path d="M20 4450 l0 -1690 1680 0 1680 0 0 1690 0 1690 -1680 0 -1680 0 0
-1690z"/>
</g>
</svg>
